<svg width="101" height="28" viewBox="0 0 101 28" fill="none" xmlns="http://www.w3.org/2000/svg">
<path d="M0.738 27V0.729999H12.356C13.5647 0.729999 14.6747 0.976665 15.686 1.47C16.722 1.96333 17.61 2.62933 18.35 3.468C19.1147 4.30666 19.6943 5.244 20.089 6.28C20.5083 7.316 20.718 8.37667 20.718 9.462C20.718 11.1393 20.2863 12.681 19.423 14.087C18.5843 15.493 17.4373 16.5043 15.982 17.121L21.976 27H16.352L10.95 18.194H5.844V27H0.738ZM5.844 13.717H12.245C13.207 13.717 13.9963 13.31 14.613 12.496C15.2543 11.6573 15.575 10.646 15.575 9.462C15.575 8.648 15.4023 7.92033 15.057 7.279C14.7117 6.63767 14.2677 6.132 13.725 5.762C13.207 5.392 12.6397 5.207 12.023 5.207H5.844V13.717ZM33.2041 27.37C31.1074 27.37 29.2944 26.9137 27.7651 26.001C26.2604 25.0883 25.0887 23.8797 24.2501 22.375C23.4114 20.8457 22.9921 19.193 22.9921 17.417C22.9921 15.5917 23.3991 13.9143 24.2131 12.385C25.0517 10.831 26.2357 9.59767 27.7651 8.685C29.2944 7.74766 31.1197 7.279 33.2411 7.279C35.3624 7.279 37.1754 7.74766 38.6801 8.685C40.1847 9.59767 41.3317 10.8187 42.1211 12.348C42.9351 13.8527 43.3421 15.4807 43.3421 17.232C43.3421 17.8733 43.3051 18.4283 43.2311 18.897H28.2461C28.3694 20.4017 28.9244 21.5857 29.9111 22.449C30.9224 23.3123 32.0817 23.744 33.3891 23.744C34.3757 23.744 35.3007 23.5097 36.1641 23.041C37.0521 22.5477 37.6564 21.9063 37.9771 21.117L42.2321 22.301C41.5167 23.781 40.3697 25.002 38.7911 25.964C37.2124 26.9013 35.3501 27.37 33.2041 27.37ZM28.1351 15.752H38.2731C38.1251 14.2967 37.5701 13.125 36.6081 12.237C35.6707 11.3243 34.5237 10.868 33.1671 10.868C31.8351 10.868 30.6881 11.3243 29.7261 12.237C28.7887 13.125 28.2584 14.2967 28.1351 15.752ZM45.0305 21.265C45.0305 20.007 45.3758 18.9093 46.0665 17.972C46.7818 17.01 47.7685 16.27 49.0265 15.752C50.2845 15.234 51.7275 14.975 53.3555 14.975C54.1695 14.975 54.9958 15.049 55.8345 15.197C56.6731 15.3203 57.4008 15.5053 58.0175 15.752V14.716C58.0175 13.4827 57.6475 12.533 56.9075 11.867C56.1921 11.201 55.1191 10.868 53.6885 10.868C52.6278 10.868 51.6165 11.053 50.6545 11.423C49.6925 11.793 48.6811 12.3357 47.6205 13.051L46.0295 9.795C47.3121 8.95633 48.6195 8.32733 49.9515 7.908C51.3081 7.48866 52.7265 7.279 54.2065 7.279C56.9691 7.279 59.1151 7.96967 60.6445 9.351C62.1985 10.7323 62.9755 12.7057 62.9755 15.271V21.45C62.9755 21.9927 63.0618 22.375 63.2345 22.597C63.4071 22.7943 63.7155 22.9177 64.1595 22.967V27C63.7155 27.0987 63.3085 27.1603 62.9385 27.185C62.5931 27.2343 62.2971 27.259 62.0505 27.259C61.0638 27.259 60.3115 27.037 59.7935 26.593C59.2755 26.149 58.9671 25.6063 58.8685 24.965L58.7575 23.966C57.8941 25.076 56.8335 25.927 55.5755 26.519C54.3421 27.0863 53.0718 27.37 51.7645 27.37C50.4571 27.37 49.2978 27.111 48.2865 26.593C47.2751 26.0503 46.4735 25.3227 45.8815 24.41C45.3141 23.4727 45.0305 22.4243 45.0305 21.265ZM57.0925 22.264C57.7091 21.672 58.0175 21.1047 58.0175 20.562V18.601C56.7348 18.083 55.4398 17.824 54.1325 17.824C52.8251 17.824 51.7645 18.1077 50.9505 18.675C50.1365 19.2177 49.7295 19.9453 49.7295 20.858C49.7295 21.598 50.0255 22.264 50.6175 22.856C51.2095 23.448 52.0605 23.744 53.1705 23.744C53.9105 23.744 54.6258 23.6083 55.3165 23.337C56.0318 23.0657 56.6238 22.708 57.0925 22.264ZM76.6366 27.37C74.5399 27.37 72.7269 26.9013 71.1976 25.964C69.6682 25.0267 68.4842 23.7933 67.6456 22.264C66.8069 20.7347 66.3876 19.082 66.3876 17.306C66.3876 15.5053 66.7946 13.8403 67.6086 12.311C68.4472 10.7817 69.6312 9.56067 71.1606 8.648C72.6899 7.73533 74.5029 7.279 76.5996 7.279C78.7209 7.279 80.5216 7.73533 82.0016 8.648C83.5062 9.56067 84.6286 10.757 85.3686 12.237L80.5216 13.717C79.6582 12.237 78.3386 11.497 76.5626 11.497C75.6006 11.497 74.7372 11.7437 73.9726 12.237C73.2079 12.7057 72.6036 13.384 72.1596 14.272C71.7156 15.1353 71.4936 16.1467 71.4936 17.306C71.4936 18.4407 71.7156 19.452 72.1596 20.34C72.6282 21.2033 73.2449 21.894 74.0096 22.412C74.7742 22.9053 75.6252 23.152 76.5626 23.152C77.4506 23.152 78.2646 22.9423 79.0046 22.523C79.7692 22.079 80.2996 21.524 80.5956 20.858L85.4426 22.338C84.7766 23.7933 83.6666 25.002 82.1126 25.964C80.5832 26.9013 78.7579 27.37 76.6366 27.37ZM100.111 26.001C99.4453 26.297 98.619 26.593 97.6323 26.889C96.6703 27.185 95.6713 27.333 94.6353 27.333C93.7227 27.333 92.884 27.1727 92.1193 26.852C91.3547 26.5313 90.738 26.0257 90.2693 25.335C89.8253 24.6197 89.6033 23.6947 89.6033 22.56V11.423H87.0503V7.612H89.6033V1.322H94.5613V7.612H98.6313V11.423H94.5613V20.895C94.5613 21.561 94.734 22.042 95.0793 22.338C95.4493 22.634 95.8933 22.782 96.4113 22.782C96.9293 22.782 97.435 22.6957 97.9283 22.523C98.4217 22.3503 98.8163 22.2023 99.1123 22.079L100.111 26.001Z" fill="#2D2D2F"/>
</svg>
